<?xml version="1.0" encoding="UTF-8"?>
<!DOCTYPE svg PUBLIC "-//W3C//DTD SVG 1.1//EN" "http://www.w3.org/Graphics/SVG/1.1/DTD/svg11.dtd">
<!-- Creator: CorelDRAW -->
<svg xmlns="http://www.w3.org/2000/svg" xml:space="preserve" width="144.859mm" height="53.975mm" version="1.1" shape-rendering="geometricPrecision" text-rendering="geometricPrecision" image-rendering="optimizeQuality" fill-rule="evenodd" clip-rule="evenodd"
viewBox="0 0 144.7431 53.9318"
 xmlns:xlink="http://www.w3.org/1999/xlink"
 xmlns:xodm="http://www.corel.com/coreldraw/odm/2003">
 <g id="Слой_x0020_1">
  <metadata id="CorelCorpID_0Corel-Layer"/>
  <g id="_2656174329680">
   <path fill="#009EFF" fill-rule="nonzero" d="M99.3328 26.2367l0 -0.3443c0,-0.2972 -0.0155,-0.5792 -0.0155,-0.8608 -0.0159,-0.4699 -0.0314,-0.9236 -0.0473,-1.3465 -0.0151,-0.313 -0.031,-0.5947 -0.0465,-0.8922 0,-0.0941 -0.0159,-0.2034 -0.0159,-0.2976 -0.0155,-0.1096 -0.0314,-0.2033 -0.0469,-0.3129 -0.1251,-1.0645 -0.4223,-2.004 -0.9383,-2.8178 -0.5632,-0.8922 -1.4547,-1.6437 -2.6902,-2.2698 -1.2203,-0.6264 -2.956,-1.1273 -5.1775,-1.5185l-13.9514 -1.4403c-0.8446,-0.1406 -1.5172,-0.2975 -1.9863,-0.454 -0.3599,-0.1251 -0.6098,-0.2816 -0.829,-0.4695 -0.047,-0.0627 -0.1252,-0.1096 -0.1566,-0.172 -0.2188,-0.3133 -0.344,-0.7515 -0.375,-1.2838 -0.0314,-0.5323 -0.0473,-1.2525 -0.0473,-2.1291l0 -0.141c0.0314,-0.7671 0.0782,-1.3776 0.2348,-1.8312 0.1875,-0.5482 0.5942,-0.9549 1.2199,-1.221 0.6257,-0.2662 1.4861,-0.4231 2.5806,-0.454 0.9542,-0.0314 7.6016,-0.0473 9.1032,-0.0473l0 -0.031 7.0383 0c2.5806,0 4.6766,-2.0977 4.6766,-4.6809l0 -1.221 -24.509 0c-0.4851,0.0314 -0.9856,0.0627 -1.4547,0.1096 -1.783,0.1721 -3.347,0.6105 -4.6766,1.2838 -1.3296,0.673 -2.3773,1.7061 -3.144,3.0995 -0.688,1.2524 -1.048,2.943 -1.1103,5.0093l-0.0159 0 0 0.2034 0 0.3913 0 0.0627 0 0.3443c0,0.2976 0.0159,0.5792 0.0159,0.8612 0.0155,0.4695 0.0314,0.9236 0.0469,1.3461 0.0155,0.313 0.031,0.5947 0.0469,0.8922 0,0.0941 0.0155,0.2037 0.0155,0.2976 0.0159,0.1096 0.0314,0.2033 0.0473,0.3129 0.1248,1.0645 0.4223,2.004 0.9383,2.8178 0.5629,0.8922 1.4544,1.6437 2.6899,2.2701 1.2203,0.6261 2.9563,1.127 5.1775,1.5186l13.9517 1.4399c0.8446,0.1406 1.5168,0.2975 1.9863,0.454 0.3595,0.1251 0.6098,0.2816 0.8287,0.4695 0.0473,0.0627 0.1251,0.1096 0.1565,0.1724 0.2189,0.3129 0.344,0.7515 0.3754,1.2834 0.0314,0.5323 0.0469,1.2525 0.0469,2.1291l0 0.1407c-0.0314,0.767 -0.0782,1.3779 -0.2347,1.8319 -0.1875,0.5478 -0.5939,0.9545 -1.22,1.2206 -0.6257,0.2662 -1.4857,0.4231 -2.5806,0.4544 -0.9541,0.031 -7.6012,0.0465 -9.1028,0.0465l0 0.0159 -7.0383 0c-2.5809,0 -4.6766,2.0977 -4.6766,4.6808l0 1.2211 24.4776 0c0.4851,-0.0314 0.9852,-0.0627 1.4544,-0.1097 1.7833,-0.1724 3.3473,-0.6105 4.6769,-1.2834 1.3293,-0.6737 2.3776,-1.7068 3.1436,-3.0998 0.6884,-1.2521 1.0484,-2.943 1.1107,-5.0094l0.0155 0 0 -0.2037 0 -0.3913c0.0314,0 0.0314,-0.0314 0.0314,-0.0469z"/>
   <path fill="#009EFF" fill-rule="nonzero" d="M134.1027 1.1586c-3.3118,4.806 -6.639,9.596 -9.9503,14.4019 -3.3271,-4.8059 -6.6544,-9.5959 -9.9812,-14.4019 -0.5058,-0.7357 -1.3342,-1.1583 -2.208,-1.1583l-8.4325 0 0 36.3803 9.8276 0 0 -26.2052 8.5555 12.3984c1.0733,1.55 3.3423,1.565 4.4157,0l8.5861 -12.3825 0 26.1739 9.8275 0 0 -36.3648 -8.4328 0c-0.8738,0 -1.7018,0.4381 -2.2076,1.1583z"/>
   <path fill="#009EFF" d="M17.0312 17.0312l0 17.0312c0,1.5675 1.2707,2.8383 2.8386,2.8383l1.1354 0 0 -15.869 3.9736 0 0 15.869 3.9741 0 0 -15.869 3.974 0 0 15.869 3.9736 0 0 -17.0309c0,-1.5678 -1.2707,-2.8386 -2.8382,-2.8386l-17.0312 0zm-17.0312 -17.0312l0 21.8565 0 5.3932 0 2.3114 10.5227 10.5227c1.5971,1.5968 3.7629,2.4939 6.0213,2.4939l26.0336 0 0 -21.5322 5.6774 5.6769 0 21.5326 -35.0765 0c-1.5059,0 -2.9496,-0.5981 -4.0142,-1.6631l-9.1642 -9.1638 0 8.0284 5.1496 5.1497c2.1294,2.1297 5.0174,3.3257 8.0288,3.3257l40.7535 0 0 -29.5609 -10.5228 -10.5228c-1.5968,-1.5967 -3.7629,-2.4939 -6.0213,-2.4939l-26.0336 0 0 21.5323 -5.677 -5.677 0 -21.5322 35.0765 0c1.5055,0 2.9492,0.5978 4.0142,1.6627l9.1639 9.1639 0 -8.0285 -5.1497 -5.1496c-2.1294,-2.1295 -5.0174,-3.3258 -8.0284,-3.3258l-40.7538 0z"/>
   <path fill="#009EFF" fill-rule="nonzero" d="M67.8896 53.7741c-0.1153,0 -0.2129,-0.0391 -0.2919,-0.1177 -0.0779,-0.0789 -0.1178,-0.1759 -0.1178,-0.2919l0 -7.6914 -2.7106 0c-0.116,0 -0.2129,-0.0399 -0.2919,-0.1188 -0.0786,-0.0786 -0.1188,-0.1759 -0.1188,-0.2919l0 -2.1114c0,-0.116 0.0402,-0.2129 0.1188,-0.2919 0.0789,-0.0789 0.1759,-0.1177 0.2919,-0.1177l8.8578 0c0.1149,0 0.2129,0.0388 0.2919,0.1177 0.0786,0.0789 0.1178,0.1759 0.1178,0.2919l0 2.1114c0,0.116 -0.0392,0.2132 -0.1178,0.2919 -0.0789,0.0789 -0.177,0.1188 -0.2919,0.1188l-2.7113 0 0 7.6914c0,0.116 -0.0392,0.2129 -0.1181,0.2919 -0.0786,0.0786 -0.1756,0.1177 -0.2919,0.1177l-2.6162 0z"/>
   <path fill="#009EFF" fill-rule="nonzero" d="M88.332 53.7741c-0.105,0 -0.1994,-0.0391 -0.2837,-0.1177 -0.0843,-0.0789 -0.1259,-0.1759 -0.1259,-0.2919l0 -10.2135c0,-0.116 0.0416,-0.2129 0.1259,-0.2919 0.0842,-0.0789 0.1787,-0.1177 0.2837,-0.1177l7.7239 0c0.1153,0 0.215,0.0388 0.2993,0.1177 0.0842,0.0789 0.1259,0.1759 0.1259,0.2919l0 1.8597c0,0.1051 -0.0417,0.1992 -0.1259,0.2835 -0.0842,0.0842 -0.184,0.1262 -0.2993,0.1262l-4.8711 0 0 1.5605 4.5243 0c0.1149,0 0.2146,0.0399 0.2989,0.1188 0.0843,0.0779 0.1262,0.1756 0.1262,0.2908l0 1.7029c0,0.1149 -0.0419,0.2118 -0.1262,0.2908 -0.0842,0.079 -0.184,0.1188 -0.2989,0.1188l-4.5243 0 0 1.5915 4.9973 0c0.1149,0 0.2147,0.0424 0.299,0.1269 0.0842,0.0832 0.1262,0.1837 0.1262,0.299l0 1.8442c0,0.116 -0.042,0.2129 -0.1262,0.2919 -0.0842,0.0786 -0.1841,0.1177 -0.299,0.1177l-7.8501 0z"/>
   <path fill="#009EFF" fill-rule="nonzero" d="M115.5842 53.9318c-0.9986,0 -1.8707,-0.1551 -2.6162,-0.4649 -0.7469,-0.3099 -1.3324,-0.7805 -1.7583,-1.4111 -0.4251,-0.6299 -0.6588,-1.4284 -0.7014,-2.3952 -0.0099,-0.4315 -0.0155,-0.8936 -0.0155,-1.3875 0,-0.4938 0.0056,-0.9661 0.0155,-1.4184 0.0427,-0.9461 0.282,-1.7364 0.7177,-2.3727 0.436,-0.6352 1.0296,-1.111 1.7808,-1.4255 0.7512,-0.3151 1.6105,-0.4731 2.5774,-0.4731 0.6933,0 1.3423,0.0818 1.9464,0.244 0.6039,0.1632 1.1421,0.4103 1.6152,0.7413 0.473,0.3306 0.8456,0.7377 1.1191,1.2213 0.2729,0.4833 0.4153,1.0505 0.4259,1.7022 0,0.0941 -0.0342,0.1759 -0.1022,0.2446 -0.0687,0.068 -0.1505,0.1026 -0.2446,0.1026l-2.6635 0c-0.158,0 -0.2739,-0.0318 -0.3472,-0.0952 -0.0733,-0.0627 -0.1368,-0.1734 -0.1893,-0.3309 -0.136,-0.4512 -0.3362,-0.7568 -0.5981,-0.9144 -0.263,-0.1576 -0.5837,-0.2365 -0.9616,-0.2365 -0.4631,0 -0.8301,0.124 -1.1036,0.3708 -0.2729,0.2471 -0.4206,0.6803 -0.4417,1.3004 -0.0317,0.8618 -0.0317,1.7445 0,2.6479 0.0212,0.6201 0.1689,1.0533 0.4417,1.3008 0.2735,0.2464 0.6405,0.3698 1.1036,0.3698 0.3779,0 0.7014,-0.0835 0.9686,-0.2521 0.2683,-0.1678 0.465,-0.4677 0.5911,-0.8982 0.0427,-0.1685 0.1023,-0.2809 0.1813,-0.339 0.0789,-0.0579 0.1973,-0.0867 0.3553,-0.0867l2.6635 0c0.0941,0 0.1759,0.0317 0.2446,0.0941 0.068,0.0634 0.1022,0.1424 0.1022,0.2365 -0.0106,0.6518 -0.153,1.2217 -0.4259,1.7103 -0.2735,0.4892 -0.6461,0.8989 -1.1191,1.2295 -0.4731,0.3309 -1.0113,0.5784 -1.6152,0.7405 -0.6041,0.1633 -1.2531,0.2447 -1.9464,0.2447z"/>
   <path fill="#009EFF" fill-rule="nonzero" d="M135.1595 53.7741c-0.105,0 -0.1995,-0.0363 -0.2838,-0.1106 -0.0842,-0.0733 -0.1258,-0.1731 -0.1258,-0.299l0 -10.2135c0,-0.116 0.0416,-0.2129 0.1258,-0.2919 0.0842,-0.0789 0.1788,-0.1177 0.2838,-0.1177l2.5693 0c0.1159,0 0.2129,0.0388 0.2919,0.1177 0.0785,0.0789 0.1184,0.1759 0.1184,0.2919l0 3.5616 3.2155 0 0 -3.5616c0,-0.116 0.0416,-0.2129 0.1261,-0.2919 0.0832,-0.0789 0.1785,-0.1177 0.2835,-0.1177l2.5693 0c0.1152,0 0.2121,0.0388 0.2908,0.1177 0.0789,0.0789 0.1188,0.1759 0.1188,0.2919l0 10.2135c0,0.116 -0.0399,0.2129 -0.1188,0.2919 -0.0786,0.0786 -0.1756,0.1177 -0.2908,0.1177l-2.5693 0c-0.105,0 -0.2002,-0.0391 -0.2835,-0.1177 -0.0845,-0.0789 -0.1261,-0.1759 -0.1261,-0.2919l0 -3.6568 -3.2155 0 0 3.6568c0,0.116 -0.0399,0.2129 -0.1184,0.2919 -0.0789,0.0786 -0.176,0.1177 -0.2919,0.1177l-2.5693 0z"/>
  </g>
 </g>
</svg>
