<svg width="35" height="23" viewBox="0 0 35 23" fill="none" xmlns="http://www.w3.org/2000/svg">
<path fill-rule="evenodd" clip-rule="evenodd" d="M0 2.45601C0 1.6055 0.689481 0.916016 1.54 0.916016H33.11C33.9605 0.916016 34.65 1.6055 34.65 2.45602V20.936C34.65 21.7865 33.9605 22.476 33.11 22.476H1.54C0.689481 22.476 0 21.7865 0 20.936V2.45601ZM2.89724 4.11283C3.25799 3.58674 3.9769 3.45271 4.50299 3.81345L17.1071 12.4563C17.2383 12.5462 17.4113 12.5462 17.5425 12.4563L30.1466 3.81345C30.6727 3.45271 31.3916 3.58674 31.7524 4.11283C32.1131 4.63892 31.9791 5.35783 31.453 5.71858L22.7359 11.696L31.453 17.6735C31.9791 18.0342 32.1131 18.7531 31.7524 19.2792C31.3916 19.8053 30.6727 19.9393 30.1466 19.5786L20.6936 13.0965L18.8489 14.3614C17.9304 14.9912 16.7192 14.9912 15.8007 14.3614L13.9561 13.0965L4.50299 19.5786C3.9769 19.9393 3.25799 19.8053 2.89724 19.2792C2.5365 18.7531 2.67053 18.0342 3.19662 17.6735L11.9137 11.696L3.19662 5.71858C2.67053 5.35783 2.5365 4.63892 2.89724 4.11283Z" fill="white"/>
</svg>
