<svg width="30" height="30" viewBox="0 0 30 30" fill="none" xmlns="http://www.w3.org/2000/svg">
<path d="M11.964 8.41457C12.5107 7.86784 12.5107 6.98141 11.964 6.43467L6.51925 0.989949C5.97251 0.443215 5.08608 0.443215 4.53935 0.989949L0.579549 4.94975C-2.4106 7.93989 7.78627 19.5811 8.99412 20.7889C10.0361 21.8309 21.8364 32.2004 24.8333 29.2035L28.7931 25.2437C29.3398 24.697 29.3398 23.8105 28.7931 23.2638L23.3484 17.8191C22.8017 17.2724 21.9152 17.2724 21.3685 17.8191L18.8936 20.294C18.3469 20.8407 17.4604 20.8407 16.9137 20.294L9.48909 12.8693C8.94236 12.3226 8.94236 11.4362 9.48909 10.8894L11.964 8.41457Z" fill="white"/>
</svg>
