<svg width="52" height="52" viewBox="0 0 52 52" fill="none" xmlns="http://www.w3.org/2000/svg">
<circle cx="26" cy="26" r="25.2055" stroke="white" stroke-width="1.589"/>
<path d="M35.3086 14.7759H16.7292C13.084 14.7759 10.1289 17.7309 10.1289 21.3762V30.6639C10.1289 34.3092 13.084 37.2642 16.7292 37.2642H35.3086C38.9538 37.2642 41.9089 34.3092 41.9089 30.6639V21.3762C41.9089 17.7309 38.9538 14.7759 35.3086 14.7759ZM30.8449 26.4719L22.1547 30.6166C21.9231 30.7271 21.6556 30.5582 21.6556 30.3017V21.7533C21.6556 21.4931 21.9301 21.3245 22.1622 21.4421L30.8524 25.8458C31.1108 25.9767 31.1063 26.3473 30.8449 26.4719Z" fill="white"/>
</svg>
