<svg width="14" height="16" viewBox="0 0 14 16" fill="none" xmlns="http://www.w3.org/2000/svg">
<g clip-path="url(#clip0_119_247)">
<path d="M13.5969 12.4906C13.4656 12.8969 13.4656 14.1031 13.5969 14.5094C13.825 14.5531 14 14.7562 14 15V15.5C14 15.775 13.775 16 13.5 16H2.5C1.11875 16 0 14.8813 0 13.5V2.5C0 1.11875 1.11875 0 2.5 0H13.5C13.775 0 14 0.225 14 0.5V12C14 12.2438 13.8281 12.4438 13.5969 12.4906ZM12.3125 12.5H2.5C1.95 12.5 1.5 12.95 1.5 13.5C1.5 14.0531 1.94687 14.5 2.5 14.5H12.3125C12.2281 13.9594 12.2281 13.0406 12.3125 12.5ZM12.5 1.5H2.5C1.94687 1.5 1.5 1.94687 1.5 2.5V11.2094C1.80625 11.075 2.14375 11 2.5 11H12.5V1.5Z" fill="#0D4A75"/>
</g>
<defs>
<clipPath id="clip0_119_247">
<rect width="14" height="16" fill="white"/>
</clipPath>
</defs>
</svg>
