<svg width="16" height="16" viewBox="0 0 16 16" fill="none" xmlns="http://www.w3.org/2000/svg">
<g clip-path="url(#clip0_119_239)">
<path d="M1.47836 3.38203C1.47863 3.37687 1.4792 3.37172 1.48007 3.36659C1.50006 3.33802 1.52464 3.31344 1.54524 3.28544C1.69461 3.08194 1.85276 2.88609 2.01965 2.69783C2.06537 2.64639 2.11112 2.59551 2.15797 2.54521C2.32982 2.36117 2.51007 2.18567 2.6987 2.01878C2.73356 1.9879 2.76615 1.95592 2.80101 1.92561C3.26588 1.52736 3.77488 1.18367 4.31802 0.901333C4.33976 0.889912 4.3626 0.880199 4.3849 0.868745C4.62678 0.745831 4.87478 0.635341 5.12798 0.53778C5.18515 0.517216 5.23717 0.497757 5.29146 0.48061C5.51665 0.399459 5.7453 0.32839 5.97736 0.267401C6.04596 0.249115 6.11455 0.230259 6.18428 0.21425C6.41292 0.161099 6.64154 0.120507 6.87535 0.0873499C6.94621 0.077068 7.01594 0.0633364 7.08741 0.0547625C7.68956 -0.0184169 8.29834 -0.0184169 8.90052 0.0547625C8.97196 0.0633364 9.04169 0.077068 9.11259 0.0873499C9.34636 0.120507 9.57729 0.161099 9.80366 0.21425C9.87339 0.230259 9.94198 0.249115 10.0106 0.267401C10.2442 0.328356 10.4728 0.399426 10.6965 0.48061C10.7537 0.500035 10.8057 0.519494 10.86 0.53778C11.1131 0.635341 11.3612 0.745797 11.603 0.868745C11.6253 0.880166 11.6482 0.889878 11.6699 0.901333C12.2149 1.18337 12.7256 1.52703 13.1921 1.92561C13.2269 1.95589 13.2595 1.9879 13.2944 2.01878C13.4849 2.18644 13.6652 2.36194 13.8351 2.54521C13.882 2.59551 13.9277 2.64639 13.9734 2.69783C14.1407 2.88568 14.2989 3.08154 14.4479 3.28541C14.4684 3.31341 14.493 3.33799 14.513 3.36656C14.5156 3.37155 14.518 3.37671 14.5199 3.382C16.4914 6.14496 16.4914 9.85484 14.5199 12.6178C14.518 12.6231 14.5157 12.6282 14.513 12.6332C14.493 12.6618 14.4684 12.6864 14.4479 12.7144C14.2988 12.9179 14.1407 13.1137 13.9734 13.302C13.9277 13.3534 13.882 13.4043 13.8351 13.4546C13.6629 13.6386 13.4827 13.8141 13.2944 13.981C13.2595 14.0119 13.2269 14.0439 13.1921 14.0742C12.7272 14.4724 12.2182 14.8161 11.6751 15.0985C11.6533 15.1099 11.6305 15.1196 11.6082 15.1311C11.3663 15.254 11.1183 15.3645 10.8651 15.462C10.8079 15.4826 10.7559 15.502 10.7016 15.5192C10.4764 15.6003 10.2478 15.6714 10.0157 15.7324C9.94714 15.7507 9.87855 15.7695 9.80882 15.7856C9.58017 15.8387 9.35155 15.8793 9.11775 15.9125C9.04688 15.9227 8.97715 15.9365 8.90568 15.945C8.30353 16.0182 7.69475 16.0182 7.09257 15.945C7.02113 15.9365 6.9514 15.9227 6.8805 15.9125C6.64673 15.8793 6.4158 15.8387 6.18943 15.7856C6.11971 15.7695 6.05111 15.7507 5.98252 15.7324C5.74855 15.6714 5.5199 15.6004 5.29661 15.5192C5.23944 15.4998 5.18743 15.4803 5.13314 15.462C4.87998 15.3645 4.63194 15.254 4.39006 15.1311C4.36775 15.1196 4.34491 15.1099 4.32318 15.0985C3.78004 14.8161 3.27104 14.4724 2.80617 14.0742C2.77131 14.0439 2.73872 14.0119 2.70385 13.981C2.51332 13.8137 2.33307 13.6383 2.16313 13.4546C2.11627 13.4043 2.07052 13.3534 2.02481 13.302C1.85752 13.1137 1.69937 12.9179 1.5504 12.7144C1.52983 12.6864 1.50525 12.6618 1.48522 12.6332C1.48261 12.6282 1.4803 12.6231 1.47836 12.6178C-0.493166 9.85487 -0.493166 6.145 1.47836 3.38203ZM2.13054 4.46351C1.58389 5.3638 1.2538 6.37874 1.16628 7.42837H4.59011C4.63204 6.74728 4.73921 6.07182 4.91019 5.41123C3.94305 5.2301 3.00692 4.91093 2.13054 4.46351ZM6.5421 1.29858C6.51008 1.30601 6.47924 1.3163 6.44722 1.32373C6.24259 1.37176 6.03966 1.42662 5.84132 1.49521C5.81101 1.50549 5.78131 1.51751 5.75156 1.52836C5.55493 1.59696 5.36118 1.67298 5.17139 1.75701C5.13823 1.77245 5.10564 1.7896 5.07249 1.80504C4.89073 1.89155 4.71315 1.98509 4.53977 2.0857L4.42546 2.15486C4.26085 2.25547 4.10079 2.36311 3.94532 2.47782C3.9053 2.50696 3.86531 2.53499 3.82586 2.56698C3.67344 2.68128 3.52748 2.8038 3.38802 2.93451C3.35145 2.96767 3.3137 3.00026 3.2777 3.03455C3.13137 3.17344 2.99191 3.32034 2.85701 3.47239C2.83986 3.49239 2.82158 3.51067 2.80443 3.52956C3.57839 3.89841 4.3983 4.16179 5.24226 4.31263C5.63324 3.23782 6.14971 2.2129 6.78097 1.25919C6.70159 1.27346 6.62041 1.28146 6.5421 1.29858ZM10.262 7.42833C10.2169 6.80988 10.1116 6.19728 9.94764 5.59925C9.30001 5.67618 8.6484 5.71433 7.99621 5.71356C7.34342 5.71336 6.69121 5.67424 6.04308 5.59637C5.87937 6.19537 5.77464 6.80894 5.73043 7.42833H10.262ZM5.73043 8.57154C5.77551 9.19 5.88081 9.80259 6.04482 10.4006C6.69245 10.3237 7.34406 10.2855 7.99624 10.2863C8.649 10.2856 9.30118 10.3237 9.94938 10.4006C10.1129 9.80256 10.2176 9.18996 10.2621 8.57154H5.73043ZM7.99624 1.51353C7.34577 2.43545 6.81077 3.43368 6.40321 4.48582C6.93235 4.54202 7.4641 4.57025 7.99624 4.57042C8.52779 4.56978 9.05897 4.54138 9.58757 4.48525C9.17951 3.43381 8.64515 2.43592 7.99624 1.51353ZM13.1348 3.47179C13.0005 3.31974 12.8605 3.17284 12.7142 3.03395C12.6782 2.99966 12.6404 2.96707 12.6038 2.93391C12.4628 2.8055 12.3169 2.68299 12.166 2.56637C12.1265 2.53606 12.0866 2.5092 12.0465 2.47722C11.8911 2.36291 11.731 2.25524 11.5664 2.15426L11.4521 2.0851C11.2787 1.98375 11.1011 1.89018 10.9194 1.80444C10.8862 1.789 10.8536 1.77185 10.8205 1.75641C10.6307 1.67067 10.4369 1.59464 10.2403 1.52776C10.2106 1.51691 10.1831 1.50489 10.1506 1.4946C9.95223 1.42829 9.75044 1.37343 9.54467 1.32313C9.51265 1.31569 9.4818 1.30541 9.44922 1.29854C9.37091 1.2814 9.28973 1.27339 9.21029 1.25909C9.8418 2.21297 10.3584 3.23808 10.7496 4.3131C11.5936 4.16225 12.4135 3.89887 13.1874 3.53003C13.1703 3.51007 13.152 3.49178 13.1348 3.47179ZM13.8619 4.46351C12.9857 4.91089 12.0498 5.23007 11.0828 5.41123C11.2536 6.07185 11.3606 6.74731 11.4024 7.42837H14.8262C14.7386 6.37874 14.4085 5.3638 13.8619 4.46351ZM13.8619 11.5364C14.4086 10.6361 14.7387 9.62117 14.8262 8.57154H11.4024C11.3604 9.25263 11.2532 9.92809 11.0823 10.5887C12.0494 10.7698 12.9855 11.0889 13.8619 11.5364ZM9.45035 14.7013C9.48237 14.6939 9.51322 14.6836 9.54524 14.6761C9.74987 14.6281 9.9528 14.5733 10.1511 14.5047C10.1814 14.4944 10.2112 14.4824 10.2409 14.4715C10.4375 14.4029 10.6313 14.3269 10.8211 14.2429C10.8542 14.2274 10.8868 14.2103 10.92 14.1948C11.1017 14.1083 11.2793 14.0148 11.4527 13.9142L11.567 13.845C11.7316 13.7444 11.8917 13.6368 12.0471 13.522C12.0872 13.4929 12.1271 13.4649 12.1666 13.4329C12.319 13.3186 12.465 13.1961 12.6044 13.0654C12.641 13.0322 12.6788 12.9996 12.7148 12.9653C12.8611 12.8264 13.0005 12.6795 13.1354 12.5275C13.1526 12.5075 13.1709 12.4892 13.188 12.4703C12.4141 12.1015 11.5942 11.8381 10.7502 11.6872C10.3592 12.7621 9.84274 13.787 9.21149 14.7407C9.2909 14.7264 9.37205 14.7184 9.45035 14.7013ZM7.99624 14.4864C8.64672 13.5645 9.18172 12.5662 9.58928 11.5141C8.53071 11.4001 7.46296 11.4001 6.40438 11.5141L6.40495 11.5147C6.81295 12.5661 7.34731 13.5639 7.99624 14.4864ZM2.85761 12.5281C2.99195 12.6801 3.13198 12.827 3.2783 12.9659C3.31431 13.0002 3.35205 13.0328 3.38862 13.066C3.52962 13.1948 3.67558 13.3173 3.82646 13.4335C3.86591 13.4638 3.9059 13.4935 3.94593 13.5227C4.10139 13.637 4.26145 13.7446 4.42606 13.8456L4.54037 13.9148C4.71339 14.0158 4.89096 14.1093 5.07309 14.1954C5.10625 14.2109 5.13883 14.228 5.17199 14.2435C5.36175 14.3292 5.55554 14.4052 5.75217 14.4721C5.78187 14.483 5.80934 14.495 5.84189 14.5053C6.04023 14.5716 6.24202 14.6264 6.44779 14.6767C6.47981 14.6842 6.51065 14.6945 6.54324 14.7013C6.62154 14.7185 6.70273 14.7265 6.78217 14.7408C6.15092 13.7871 5.63441 12.7622 5.24346 11.6873C4.3995 11.8382 3.57956 12.1016 2.80563 12.4704C2.82218 12.4898 2.84047 12.5081 2.85761 12.5281ZM2.13054 11.5364C3.00672 11.089 3.94264 10.7698 4.90962 10.5887C4.73884 9.92805 4.63184 9.25259 4.59011 8.57154H1.16628C1.25383 9.62114 1.58392 10.6361 2.13054 11.5364Z" fill="#0D4A75"/>
</g>
<defs>
<clipPath id="clip0_119_239">
<rect width="16" height="16" fill="white" transform="matrix(-1 0 0 1 16 0)"/>
</clipPath>
</defs>
</svg>
